<svg xmlns="http://www.w3.org/2000/svg" viewBox="0 0 512 512">
  <defs>
    <linearGradient id="blueGreenGradient" x1="0%" y1="0%" x2="100%" y2="100%">
      <stop offset="0%" style="stop-color:#005cbf;stop-opacity:1" />
      <stop offset="100%" style="stop-color:#00a86b;stop-opacity:1" />
    </linearGradient>
  </defs>
  <rect width="512" height="512" fill="#000000" />
  <g transform="translate(100,100) scale(0.6)">
    <path
      d="M 150,100 C 120,100 100,130 100,160 L 100,250 C 100,280 120,300 150,300 C 180,300 200,280 200,250 L 200,160 C 200,130 180,100 150,100 Z M 250,100 C 220,100 200,130 200,160 L 200,250 C 200,280 220,300 250,300 C 280,300 300,280 300,250 L 300,160 C 300,130 280,100 250,100 Z M 350,100 C 320,100 300,130 300,160 L 300,250 C 300,280 320,300 350,300 C 380,300 400,280 400,250 L 400,160 C 400,130 380,100 350,100 Z"
      fill="url(#blueGreenGradient)"
      stroke="url(#blueGreenGradient)"
      stroke-width="10"
      stroke-linecap="round"
      stroke-linejoin="round"
    />
    <path
      d="M 250,50 L 200,0 L 200,30 C 100,30 30,100 30,200 L 0,200 L 50,250 L 100,200 L 70,200 C 70,120 120,70 200,70 L 200,100 Z M 250,450 L 300,500 L 300,470 C 400,470 470,400 470,300 L 500,300 L 450,250 L 400,300 L 430,300 C 430,380 380,430 300,430 L 300,400 Z"
      fill="url(#blueGreenGradient)"
      stroke="url(#blueGreenGradient)"
      stroke-width="10"
      stroke-linecap="round"
      stroke-linejoin="round"
    />
  </g>
</svg>
